<?xml version="1.0" encoding="UTF-8"?>
<svg id="LOGO" xmlns="http://www.w3.org/2000/svg" viewBox="0 0 100 100">
	<style>
		.logo-grey {
			fill: none;
			stroke: #eeeeee;
			stroke-miterlimit: 10;
			stroke-width: 5px;
		}

		.logo-red-top {
			fill: none;
			stroke: #ff375c;
			stroke-linecap: round;
			stroke-miterlimit: 10;
			stroke-width: 5px;
			stroke-dasharray: 103.75;
			stroke-dashoffset: 207.5;
			animation: top-draw 2s linear infinite;
		}

		@keyframes top-draw {
			from {
				stroke-dashoffset: 207.5;
			}
			to {
				stroke-dashoffset: 0;
			}
		}
			
	</style>
	<path class="logo-grey" d="M6.25,50v23.634c0,8.702,4.832,13.866,10.794,13.866h0c5.961,0,9.559-6.608,12.089-13.866l8.433-21.113c2.412-6.667,6.473-11.975,12.434-11.975,5.961,0,10.023,5.308,12.434,11.975l8.433,21.113c2.53,7.257,6.128,13.866,12.089,13.866h0c5.961,0,10.794-5.164,10.794-13.866v-23.634s0-23.634,0-23.634c0-8.702-4.832-13.866-10.794-13.866h0c-5.961,0-9.559,6.608-12.089,13.866l-8.433,21.113c-2.412,6.667-6.473,11.975-12.434,11.975-5.961,0-10.023-5.308-12.434-11.975l-8.433-21.113c-2.53-7.257-6.128-13.866-12.089-13.866h0c-5.961,0-10.794,5.164-10.794,13.866v23.634Z"/>
	<path class="logo-red-top" d="M6.25,50v23.634c0,8.702,4.832,13.866,10.794,13.866h0c5.961,0,9.559-6.608,12.089-13.866l8.433-21.113c2.412-6.667,6.473-11.975,12.434-11.975,5.961,0,10.023,5.308,12.434,11.975l8.433,21.113c2.53,7.257,6.128,13.866,12.089,13.866h0c5.961,0,10.794-5.164,10.794-13.866v-23.634s0-23.634,0-23.634c0-8.702-4.832-13.866-10.794-13.866h0c-5.961,0-9.559,6.608-12.089,13.866l-8.433,21.113c-2.412,6.667-6.473,11.975-12.434,11.975-5.961,0-10.023-5.308-12.434-11.975l-8.433-21.113c-2.53-7.257-6.128-13.866-12.089-13.866h0c-5.961,0-10.794,5.164-10.794,13.866v23.634Z"/>
</svg>
